<svg width="351" height="419" viewBox="0 0 351 419" fill="none" xmlns="http://www.w3.org/2000/svg">
<path d="M184.185 249.644C180.078 258.106 177.524 263.553 179.933 267.543C181.998 270.953 186.71 271.693 190.14 272.233C199.06 273.63 202.512 269.451 208.845 271.805C209.355 271.994 214.023 273.785 216.493 278.198C218.586 281.925 219.046 287.4 211.82 304.192C204.593 320.984 203.211 317.64 201.191 325.502C199.398 332.479 199.148 341.804 198.638 360.449C198.555 363.615 198.543 365.139 197.789 367.27C194.675 376.084 185.578 376.334 180.783 383.89C176.969 389.899 177.536 397.889 179.084 401.789C185.806 418.731 224.258 426.042 244.578 410.313C247.392 408.132 255.012 401.511 257.343 391.134C259.33 382.232 256.289 375.611 254.363 368.973C250.333 355.063 253.097 339.662 258.614 308.883C263.365 282.421 267.589 276.99 263.293 266.263C261.129 260.86 255.473 255.135 244.161 243.679C225.901 225.185 219.74 224.278 217.381 224.072C206.453 223.137 197.689 230.498 195.696 232.173C190.607 236.429 188.464 240.841 184.185 249.644Z" fill="url(#paint0_linear)"/>
<path d="M35.8143 351.513C61.0182 305.361 70.537 270.441 70.537 270.441C72.7571 262.235 76.0151 249.671 79.1177 234.148C85.1898 203.724 85.7781 186.905 89.2415 186.721C93.876 186.487 88.2647 216.688 107.191 239.578C112.492 245.994 123.603 257.316 126.367 275.238C127.106 280.006 126.367 286.104 107.663 328.935C94.4199 359.253 86.1222 370.609 80.8772 377.091C74.1891 385.364 67.9561 392.931 57.072 399.252C50.6225 403.002 27.5999 416.378 12.0091 405.645C2.94547 399.402 -2.7769 385.615 1.38027 377.942C5.60405 370.152 17.5983 373.291 29.0152 361.323C32.079 358.101 33.844 355.119 35.8143 351.513Z" fill="url(#paint1_linear)"/>
<path d="M275.587 170.385C267.223 171.359 268.788 183.294 249.367 196.942C245.227 199.858 238.861 203.736 234.776 211.725C232.905 215.386 230.757 219.587 231.801 224.083C233.816 232.763 245.493 232.985 255.606 242.41C263.154 249.46 265.658 257.756 268.372 266.703C276.603 293.938 267.062 320.483 264.548 327.221C259.719 340.135 254.918 345.343 257.332 348.103C260.018 351.185 267.201 346.022 300.269 331.483C317.991 323.694 332.861 317.724 338.861 302.735C338.861 302.684 338.916 302.607 338.955 302.501C346.048 284.329 331.773 263.331 326.189 254.768C294.081 205.466 290.251 168.683 275.587 170.385Z" fill="url(#paint2_linear)"/>
<path d="M344.883 305.06C340.237 303.875 337.584 313.796 324.052 326.364C320.034 330.098 305.925 342.945 285.367 349.382C271.63 353.678 266.235 351.608 262.411 357.05C256.633 365.279 262.089 379.795 268.788 388.163C276.181 397.405 290.184 405.511 300.247 401.372C306.386 398.846 305.242 394.139 315.127 382.193C324.158 371.265 327.144 372.734 335.53 362.591C340.082 357.088 347.447 347.98 349.961 334.888C352.381 322.531 350.527 306.49 344.883 305.06Z" fill="url(#paint3_linear)"/>
<path d="M101.141 352.365C96.8843 359.943 96.5235 361.517 92.9047 366.981C87.9094 374.52 85.8336 375.7 86.4053 377.363C87.9982 381.97 105.348 377.197 131.046 377.508C153.708 377.781 166.774 381.814 167.745 378.788C168.772 375.605 154.013 372.256 138.839 357.194C124.669 343.129 122.127 330.749 115.6 331.6C112.569 332.029 108.762 338.805 101.141 352.365Z" fill="url(#paint4_linear)"/>
<path d="M146.776 93.6757C142.569 94.2321 138.101 97.6428 138.273 100.909C138.478 104.937 145.66 108.231 151.449 107.302C154.258 106.857 158.665 105.076 159.103 102.188C159.658 98.3048 153.02 92.8745 146.776 93.6757Z" fill="url(#paint5_linear)"/>
<path d="M73.6507 84.7289C70.3538 83.3991 57.1441 98.0823 55.3736 115.837C53.0202 139.433 71.8302 158.317 80.9049 167.403C94.3311 180.885 111.237 190.532 113.219 188.285C114.512 186.816 108.673 181.052 98.788 166.98C83.5747 145.359 73.9005 131.616 72.0078 113.706C70.1596 96.7581 76.3593 85.8138 73.6507 84.7289Z" fill="url(#paint6_linear)"/>
<path d="M280.688 75.3481C263.421 43.1441 254.785 27.0365 241.58 17.3887C207.724 -7.34293 167.284 1.33679 164.204 2.04897C138.761 7.92447 123.215 23.0806 108.939 36.996C91.5892 53.9048 80.583 72.2434 82.5811 74.0739C85.1232 76.4052 107.852 51.184 114.462 55.7464C119.263 59.0847 108.679 73.295 110.216 97.0864C111.326 114.134 117.309 115.486 119.141 134.164C121.444 157.633 113.874 174.814 114.889 175.076C115.905 175.337 123.698 159.419 125.518 137.998C126.456 126.976 124.758 126.77 123.392 91.5446C122.921 79.304 122.837 71.4645 125.946 61.7109C129.398 50.9336 135.437 42.048 136.569 42.5376C137.701 43.0273 133.794 51.9963 131.019 65.55C129.281 74.035 124.108 95.4673 128.044 97.0864C130.402 98.06 132.756 90.5654 140.371 88.134C149.412 85.2518 162.605 90.5487 165.453 98.7889C167.595 104.987 162.344 108.392 155.251 127.343C150.594 139.773 148.269 145.993 149.701 151.635C152.759 163.503 165.447 165.545 165.003 174.647C164.67 181.519 157.271 183.438 157.788 189.564C158.343 196.347 167.972 200.692 172.668 202.779C178.102 205.216 200.214 215.142 219.846 202.779C234.049 193.837 238.356 178.67 238.977 176.356C241.958 165.228 238.223 160.532 241.531 145.242C243.912 134.209 248.607 123.954 250.455 124.361C252.553 124.822 250.455 138.888 251.732 165.272C252.481 180.812 253.552 183.077 255.134 183.6C261.845 185.859 276.897 156.776 280.216 150.355C288.614 134.125 293.104 125.446 293.393 113.277C293.67 103.924 291.344 95.2224 280.688 75.3481ZM195.546 200.648C180.561 199.841 169.804 194.166 170.015 193.259C170.292 192.146 186.033 198.105 193.254 191.272C194.364 190.232 195.474 188.696 197.223 188.713C200.336 188.713 201.108 193.587 205.159 196.386C210.848 200.28 218.719 197.215 218.763 197.498C218.808 197.782 208.867 201.365 195.546 200.648ZM217.37 169.111C217.087 169.874 212.891 180.796 203.006 182.175C195.097 183.288 189.258 177.463 185.056 173.273C179.789 168.026 178.568 163.158 178.257 161.722C177.735 159.319 177.069 156.253 178.635 153.933C180.433 151.296 184.185 151.095 192.427 151.284C207.413 151.624 214.978 151.841 217.181 154.879C220.745 159.825 218.047 167.203 217.348 169.111H217.37ZM243.728 106.033C240.437 109.321 234.787 110.2 230.963 107.313C228.41 105.382 226.672 101.749 227.56 98.7889C229.409 92.6241 242.352 90.3818 245.843 94.9553C247.902 97.665 246.787 102.956 243.706 106.033H243.728Z" fill="url(#paint7_linear)"/>
<path d="M130.902 164.566C132.611 164.332 134.415 166.591 143.94 184.735C150.927 198.044 150.733 198.305 152.443 200.075C160.59 208.493 173.007 210.807 177.974 211.725C186.299 213.272 188.414 211.981 189.591 213.717C195.374 222.225 153.719 267.615 141.414 260.877C132.656 256.081 149.479 230.754 135.176 204.626C131.918 198.667 125.823 190.449 126.107 178.475C126.229 172.477 127.988 164.955 130.902 164.566Z" fill="url(#paint8_linear)"/>
<path d="M11.2764 349.794C12.7029 348.164 15.0229 346.105 26.3954 342.405C34.2935 339.84 39.1112 338.305 39.9992 339.757C40.4876 340.558 39.4442 341.671 36.114 346.667C31.6016 353.522 32.2288 353.561 29.7811 356.616C27.0726 360.032 24.8858 362.786 20.995 364.661C18.8914 365.679 14.0294 368.033 10.6048 365.707C7.43007 363.548 7.5633 358.763 7.57995 358.034C7.72981 353.973 10.1164 351.157 11.2764 349.794Z" fill="url(#paint9_linear)"/>
<defs>
<linearGradient id="paint0_linear" x1="175.5" y1="0" x2="175.5" y2="419" gradientUnits="userSpaceOnUse">
<stop stop-color="#EA2A12"/>
<stop offset="1" stop-color="#E85B0B"/>
</linearGradient>
<linearGradient id="paint1_linear" x1="175.5" y1="0" x2="175.5" y2="419" gradientUnits="userSpaceOnUse">
<stop stop-color="#EA2A12"/>
<stop offset="1" stop-color="#E85B0B"/>
</linearGradient>
<linearGradient id="paint2_linear" x1="175.5" y1="0" x2="175.5" y2="419" gradientUnits="userSpaceOnUse">
<stop stop-color="#EA2A12"/>
<stop offset="1" stop-color="#E85B0B"/>
</linearGradient>
<linearGradient id="paint3_linear" x1="175.5" y1="0" x2="175.5" y2="419" gradientUnits="userSpaceOnUse">
<stop stop-color="#EA2A12"/>
<stop offset="1" stop-color="#E85B0B"/>
</linearGradient>
<linearGradient id="paint4_linear" x1="175.5" y1="0" x2="175.5" y2="419" gradientUnits="userSpaceOnUse">
<stop stop-color="#EA2A12"/>
<stop offset="1" stop-color="#E85B0B"/>
</linearGradient>
<linearGradient id="paint5_linear" x1="175.5" y1="0" x2="175.5" y2="419" gradientUnits="userSpaceOnUse">
<stop stop-color="#EA2A12"/>
<stop offset="1" stop-color="#E85B0B"/>
</linearGradient>
<linearGradient id="paint6_linear" x1="175.5" y1="0" x2="175.5" y2="419" gradientUnits="userSpaceOnUse">
<stop stop-color="#EA2A12"/>
<stop offset="1" stop-color="#E85B0B"/>
</linearGradient>
<linearGradient id="paint7_linear" x1="175.5" y1="0" x2="175.5" y2="419" gradientUnits="userSpaceOnUse">
<stop stop-color="#EA2A12"/>
<stop offset="1" stop-color="#E85B0B"/>
</linearGradient>
<linearGradient id="paint8_linear" x1="175.5" y1="0" x2="175.5" y2="419" gradientUnits="userSpaceOnUse">
<stop stop-color="#EA2A12"/>
<stop offset="1" stop-color="#E85B0B"/>
</linearGradient>
<linearGradient id="paint9_linear" x1="175.5" y1="0" x2="175.5" y2="419" gradientUnits="userSpaceOnUse">
<stop stop-color="#EA2A12"/>
<stop offset="1" stop-color="#E85B0B"/>
</linearGradient>
</defs>
</svg>
