<svg width="159" height="158" viewBox="0 0 159 158" fill="none" xmlns="http://www.w3.org/2000/svg">
<g filter="url(#filter0_d)">
<path fill-rule="evenodd" clip-rule="evenodd" d="M72.7782 117.93C72.8846 116.477 73.0544 114.563 73.3229 112.327C73.9333 107.246 75.068 100.38 77.1809 93.4403C79.2733 86.5678 82.4489 79.2038 87.3727 73.462C92.4286 67.5663 99.4329 63.3023 108.651 63.3023C127.115 63.3023 136.262 78.855 140.708 91.7068C144.112 101.547 145.48 111.817 146.041 117.008C151.412 120.371 154.581 124.516 154.581 129C154.581 137.892 142.117 145.451 124.745 148.221C120.885 151.831 115.68 154 110.105 154C104.53 154 99.3241 151.831 95.464 148.221C78.0928 145.451 65.6279 137.892 65.6279 129C65.6279 124.918 68.2552 121.117 72.7782 117.93ZM133.616 111.723C132.879 106.993 131.696 101.222 129.719 95.5082C125.517 83.3601 118.967 74.9302 108.651 74.9302C103.48 74.9302 99.5104 77.1706 96.1996 81.0314C92.7567 85.0462 90.1729 90.6909 88.3046 96.8271C86.6525 102.253 85.6562 107.739 85.0624 112.181C92.1951 109.953 100.817 108.651 110.105 108.651C118.737 108.651 126.794 109.776 133.616 111.723ZM136.717 125.185C140.378 126.86 141.931 128.253 142.571 129C141.931 129.747 140.378 131.14 136.717 132.815C135.101 133.554 133.27 134.241 131.251 134.852C131.3 134.266 131.326 133.671 131.326 133.07C131.326 129.104 130.232 125.456 128.352 122.355C131.542 123.139 134.359 124.106 136.717 125.185ZM110.105 142.372C106.375 142.372 103.142 140.308 101.555 137.293C100.888 136.026 100.512 134.59 100.512 133.07C100.512 127.932 104.807 123.767 110.105 123.767C115.403 123.767 119.698 127.932 119.698 133.07C119.698 134.59 119.321 136.026 118.654 137.293C117.068 140.308 113.835 142.372 110.105 142.372ZM83.4925 132.815C85.1081 133.554 86.9393 134.241 88.9582 134.852C88.9089 134.266 88.8837 133.671 88.8837 133.07C88.8837 129.104 89.9776 125.456 91.8577 122.355C88.6677 123.139 85.8505 124.106 83.4925 125.185C79.8314 126.86 78.2786 128.253 77.6378 129C78.2786 129.747 79.8314 131.14 83.4925 132.815Z" fill="url(#paint0_linear)"/>
<path fill-rule="evenodd" clip-rule="evenodd" d="M70.8605 23.186V68.5349H70.8285C70.8496 68.7258 70.8605 68.9198 70.8605 69.1163C70.8605 72.0061 68.5178 74.3488 65.6279 74.3488C63.3538 74.3488 61.4185 72.8981 60.697 70.8716L41.2715 58.0916L47.0233 49.3488L60.3953 58.1463V23.186H70.8605Z" fill="url(#paint1_linear)"/>
<path fill-rule="evenodd" clip-rule="evenodd" d="M114.338 62.0734C112.517 36.7608 91.4046 16.7907 65.6279 16.7907C38.6559 16.7907 16.7907 38.6559 16.7907 65.6279C16.7907 91.7315 37.2705 113.052 63.039 114.398L62.2284 127.164C29.7734 125.399 4 98.5234 4 65.6279C4 31.5918 31.5918 4 65.6279 4C99.1216 4 126.375 30.7192 127.235 64.0054C123.528 63.4481 118.576 62.707 114.338 62.0734Z" fill="url(#paint2_linear)"/>
</g>
<defs>
<filter id="filter0_d" x="0" y="0" width="158.581" height="158" filterUnits="userSpaceOnUse" color-interpolation-filters="sRGB">
<feFlood flood-opacity="0" result="BackgroundImageFix"/>
<feColorMatrix in="SourceAlpha" type="matrix" values="0 0 0 0 0 0 0 0 0 0 0 0 0 0 0 0 0 0 127 0"/>
<feOffset/>
<feGaussianBlur stdDeviation="2"/>
<feColorMatrix type="matrix" values="0 0 0 0 0.909167 0 0 0 0 0.355909 0 0 0 0 0.0447009 0 0 0 1 0"/>
<feBlend mode="normal" in2="BackgroundImageFix" result="effect1_dropShadow"/>
<feBlend mode="normal" in="SourceGraphic" in2="effect1_dropShadow" result="shape"/>
</filter>
<linearGradient id="paint0_linear" x1="65.6174" y1="4" x2="65.6174" y2="127.164" gradientUnits="userSpaceOnUse">
<stop stop-color="#EA2A12"/>
<stop offset="1" stop-color="#E6BC30"/>
</linearGradient>
<linearGradient id="paint1_linear" x1="65.6174" y1="4" x2="65.6174" y2="127.164" gradientUnits="userSpaceOnUse">
<stop stop-color="#EA2A12"/>
<stop offset="1" stop-color="#E6BC30"/>
</linearGradient>
<linearGradient id="paint2_linear" x1="65.6174" y1="4" x2="65.6174" y2="127.164" gradientUnits="userSpaceOnUse">
<stop stop-color="#EA2A12"/>
<stop offset="1" stop-color="#E6BC30"/>
</linearGradient>
</defs>
</svg>
