<svg width="166" height="279" viewBox="0 0 166 279" fill="none" xmlns="http://www.w3.org/2000/svg">
<g clip-path="url(#clip0)">
<path d="M153.48 200.355C159.605 195.725 166.076 195.295 165.998 193.307C165.947 192.055 163.336 191.095 161.824 190.744C151.733 188.407 134.269 200.223 133.581 212.528C132.823 226.007 152.613 232.572 149.951 242.001C148.034 248.789 136.048 251.496 128.446 253.212C121.472 254.787 116.287 254.746 112.057 254.768C114.891 245.759 116.491 237.375 116.73 236.073C125.394 189.163 108.813 151.823 101.805 136.604C97.5562 127.379 93.7567 121.146 90.2463 116.773C90.8717 113.784 91.3651 110.271 91.5348 105.851C91.8397 97.978 92.1194 87.1187 85.7586 76.5385C85.2149 75.6382 84.4638 74.4055 83.4487 73.0222C88.0213 67.834 90.8277 60.7356 90.5732 53.4741C90.4977 51.3379 90.1646 49.3367 89.6335 47.4672C90.3155 45.5193 91.1389 41.9215 92.6599 34.8952C95.9189 19.8169 96.9968 13.8257 93.7819 8.30507C92.3079 5.77373 91.1106 5.36595 90.7335 5.26244C87.1351 4.25869 84.2375 9.91108 75.6485 18.076C72.3142 21.2441 69.5517 23.4335 67.5027 25.2372C62.3487 23.2642 53.5334 21.059 43.6025 23.6374C43.0054 22.1694 42.1726 20.4787 41.1481 18.3991C37.3643 10.7172 29.2185 -1.43762 24.4573 0.137017C22.7885 0.689082 21.9054 2.80638 20.8746 8.44936C18.901 19.2491 17.8325 35.0677 20.1078 42.2289C20.0072 42.4516 19.9004 42.6743 19.803 42.9033C18.7093 45.4817 14.6992 54.9326 19.0016 63.7249C20.1864 66.1433 21.7766 68.0599 23.6528 69.6345C20.774 73.7687 19.451 78.9977 17.7162 86.1494C14.7212 98.4987 15.8872 104.615 16.5943 130.678C16.9368 143.247 16.9054 150.653 17.2857 155.568C14.4698 168.062 13.0556 174.329 12.2636 176.807C7.25734 192.428 2.79787 193.225 0.868256 204.36C-0.703088 213.422 0.110868 220.574 1.34909 230.791C3.021 244.57 4.29693 254.834 9.05182 264.909C10.84 268.698 12.3108 270.938 14.5075 272.917C19.7527 277.647 26.2172 278.284 35.0481 278.682C46.255 279.19 54.6711 279.015 71.959 278.682C77.7856 278.569 84.4984 278.45 93.4644 278.783C95.658 278.864 95.6172 278.883 95.8906 278.861C97.3394 278.742 98.719 278.143 100.03 277.173C110.111 278.133 128.945 271.672 142.893 261.546C150.366 256.12 163.732 246.418 162.472 235.599C161.127 224.037 144.03 219.376 145.781 209.972C146.598 205.559 151.189 202.089 153.48 200.355Z" fill="#1C2034"/>
</g>
<defs>
<clipPath id="clip0">
<rect width="166" height="279" fill="white"/>
</clipPath>
</defs>
</svg>
