<svg width="134" height="158" viewBox="0 0 134 158" fill="none" xmlns="http://www.w3.org/2000/svg">
<g filter="url(#filter0_d)">
<path fill-rule="evenodd" clip-rule="evenodd" d="M75.6331 63.5054C77.1831 62.0606 79.6764 60.4059 82.9867 60.4059C86.3948 60.4059 88.6277 62.1556 89.9186 63.7964C90.5516 64.6009 90.9751 65.3933 91.2416 65.9816C91.3763 66.2789 91.4749 66.533 91.5427 66.7226C91.5767 66.8177 91.6033 66.8973 91.6229 66.9589C91.6328 66.9897 91.6409 67.0161 91.6475 67.0377L91.6561 67.0666L91.6595 67.0783L91.661 67.0835L91.6617 67.0859C91.662 67.0871 91.6624 67.0882 89.1903 67.7955L91.6624 67.0882L91.7616 67.4349V82.3007C93.1153 82.0613 94.7204 82.1097 96.5868 82.4825C100.204 83.2049 102.339 85.1256 103.523 87.1903C105.205 86.46 107.4 86.3301 110.119 86.9767C114.049 87.9111 116.078 90.538 117.085 93.1114C118.224 92.5712 119.554 92.3248 121.058 92.4186C124.759 92.6497 126.998 94.5699 128.227 96.472C128.817 97.3846 129.163 98.2693 129.365 98.9225C129.466 99.2525 129.534 99.5336 129.578 99.7435C129.6 99.8488 129.616 99.9371 129.628 100.006C129.631 100.027 129.634 100.047 129.637 100.064C129.639 100.075 129.64 100.085 129.642 100.094L129.646 100.127L129.648 100.14L129.649 100.146L129.65 100.149C129.65 100.15 129.65 100.151 127.101 100.492L129.65 100.151L129.672 100.321V131.074L123.469 142.776V154H80.4154V143.148C80.3818 143.112 80.3471 143.074 80.3114 143.035C79.8039 142.484 79.0821 141.691 78.2192 140.717C76.4957 138.773 74.1977 136.096 71.9153 133.181C69.6423 130.278 67.338 127.081 65.6337 124.102C64.7817 122.613 64.0469 121.123 63.5446 119.711C63.055 118.334 62.7127 116.832 62.8501 115.391C63.2923 110.755 66.4361 107.264 69.014 105.103C70.3478 103.985 71.648 103.125 72.6123 102.543C72.6879 102.498 72.7616 102.454 72.8332 102.411V67.1118L73.1728 66.5185L75.4045 67.7955C73.1728 66.5185 73.1733 66.5176 73.1737 66.5168L73.1748 66.515L73.1771 66.511L73.1824 66.5017L73.1964 66.4778C73.2072 66.4595 73.2208 66.4366 73.2372 66.4094C73.2702 66.3551 73.3146 66.2833 73.3704 66.1967C73.4818 66.0236 73.6396 65.7894 73.8429 65.5143C74.2467 64.968 74.8452 64.2397 75.6331 63.5054ZM77.9758 68.5746V115.635H72.8332V108.626C72.6622 108.76 72.4899 108.9 72.3173 109.045C70.0701 110.928 68.2166 113.287 67.9695 115.879C67.9345 116.245 68.0123 116.926 68.3897 117.987C68.7544 119.012 69.3336 120.214 70.0971 121.548C71.6238 124.216 73.7568 127.192 75.9642 130.011C78.1622 132.818 80.3877 135.411 82.0676 137.306C82.9063 138.252 83.6062 139.021 84.0949 139.552C84.3393 139.818 84.5306 140.024 84.66 140.162C84.7247 140.231 84.7739 140.284 84.8064 140.318L84.8426 140.356L84.8511 140.365L84.8528 140.367L85.558 141.111V148.857H118.326V141.497L124.53 129.795V100.732C124.513 100.658 124.487 100.557 124.45 100.437C124.35 100.111 124.18 99.6837 123.908 99.2626C123.413 98.4974 122.55 97.6643 120.737 97.5512C119.836 97.4949 119.361 97.6945 119.103 97.861C118.821 98.0431 118.582 98.3281 118.386 98.7322C118.198 99.1187 118.085 99.5446 118.021 99.9124C118.011 100.066 118 100.204 117.989 100.323C117.977 100.456 117.965 100.568 117.955 100.655V108.408H112.812V100.492H115.383C112.812 100.492 112.812 100.49 112.812 100.489L112.812 100.487L112.812 100.481L112.812 100.468L112.812 100.436C112.813 100.411 112.814 100.381 112.815 100.345C112.817 100.274 112.821 100.18 112.829 100.067C112.841 99.8846 112.863 99.6481 112.901 99.3726C112.907 99.2492 112.912 99.1132 112.915 98.9665C112.929 98.1995 112.881 97.1976 112.657 96.1842C112.212 94.1663 111.215 92.5232 108.93 91.9797C105.941 91.2692 105.252 92.0979 105.163 92.2047C105.161 92.2062 105.16 92.2076 105.159 92.2089C105.031 92.3614 104.945 92.5585 104.896 92.7576C104.88 92.8216 104.87 92.8766 104.865 92.9172C104.862 92.956 104.86 92.9911 104.858 93.0225V108.408H99.7155V92.9199H102.287C99.7155 92.9199 99.7155 92.9181 99.7155 92.9163L99.7155 92.9126L99.7156 92.9047L99.7157 92.8875C99.7158 92.881 99.7159 92.8741 99.716 92.8668C99.7161 92.8604 99.7163 92.8537 99.7164 92.8467C99.7171 92.8168 99.7182 92.7814 99.7202 92.741C99.7228 92.685 99.7269 92.619 99.7332 92.544C99.7361 92.4337 99.7359 92.2635 99.7214 92.0508C99.6905 91.5952 99.5978 90.9987 99.3674 90.3947C98.9554 89.3145 98.0603 88.0209 95.5796 87.5255C92.6027 86.9309 91.8946 87.6573 91.8693 87.6833L91.8688 87.6838C91.8101 87.7424 91.7807 87.8049 91.7645 87.86C91.7634 87.8637 91.7624 87.8672 91.7616 87.8705V108.408H86.619V68.2452C86.6009 68.2019 86.5804 68.1545 86.5573 68.1036C86.4146 67.7885 86.1919 67.3763 85.8771 66.9762C85.2725 66.2079 84.4037 65.5484 82.9867 65.5484C81.4719 65.5484 80.1741 66.3028 79.1393 67.2673C78.6347 67.7376 78.2424 68.2138 77.9785 68.5709C77.9776 68.5722 77.9767 68.5734 77.9758 68.5746Z" fill="url(#paint0_linear)"/>
<path fill-rule="evenodd" clip-rule="evenodd" d="M65.7403 4L81.4463 48.6162H126.517L97.5501 72.4924L92.8849 66.8324L106.086 55.9511H76.2523L65.4533 25.2745L53.7154 55.9511H22.9024L45.6036 76.6922L37.0583 108.164L64.7747 89.4715L71.2707 97.1139L65.682 101.864L63.4357 99.2216L24.8133 125.269L37.3524 79.0888L4 48.6162H48.6685L65.7403 4Z" fill="url(#paint1_linear)"/>
</g>
<defs>
<filter id="filter0_d" x="0" y="0" width="133.672" height="158" filterUnits="userSpaceOnUse" color-interpolation-filters="sRGB">
<feFlood flood-opacity="0" result="BackgroundImageFix"/>
<feColorMatrix in="SourceAlpha" type="matrix" values="0 0 0 0 0 0 0 0 0 0 0 0 0 0 0 0 0 0 127 0"/>
<feOffset/>
<feGaussianBlur stdDeviation="2"/>
<feColorMatrix type="matrix" values="0 0 0 0 0.909167 0 0 0 0 0.355909 0 0 0 0 0.0447009 0 0 0 1 0"/>
<feBlend mode="normal" in2="BackgroundImageFix" result="effect1_dropShadow"/>
<feBlend mode="normal" in="SourceGraphic" in2="effect1_dropShadow" result="shape"/>
</filter>
<linearGradient id="paint0_linear" x1="96.246" y1="60.4059" x2="96.246" y2="154" gradientUnits="userSpaceOnUse">
<stop stop-color="#EA2A12"/>
<stop offset="1" stop-color="#E6BC30"/>
</linearGradient>
<linearGradient id="paint1_linear" x1="65.2587" y1="4" x2="65.2587" y2="125.269" gradientUnits="userSpaceOnUse">
<stop stop-color="#EA2A12"/>
<stop offset="1" stop-color="#E6BC30"/>
</linearGradient>
</defs>
</svg>
